<svg width="360" height="200" viewBox="0 0 360 200" fill="none" xmlns="http://www.w3.org/2000/svg">
  <rect width="360" height="200" fill="#121212"/>
  <rect x="2" y="2" width="356" height="196" rx="4" stroke="#222" fill="transparent"/>
  <rect x="0" width="4" height="200" fill="#f29b11"/>
  
  <text x="15" y="30" fill="#fff" font-family="Arial" font-size="16" font-weight="900" letter-spacing="1">12:30 | MEAL 1: PREP GUIDE</text>
  
  <!-- Raw Ingredient Section -->
  <text x="15" y="55" fill="#666" font-family="Arial" font-size="10" font-weight="800">PREPARATION (RAW WEIGHTS):</text>
  
  <g transform="translate(15, 65)">
    <!-- Ingredient 1 -->
    <rect width="330" height="32" rx="6" fill="#1a1a1a" stroke="#333"/>
    <text x="12" y="21" fill="#fff" font-family="Arial" font-size="13" font-weight="900">CHICKEN BREAST</text>
    <rect x="240" y="6" width="80" height="20" rx="4" fill="#f29b11"/>
    <text x="280" y="20" fill="#000" font-family="Arial" font-size="11" font-weight="900" text-anchor="middle">220G RAW</text>
  </g>

  <g transform="translate(15, 105)">
    <!-- Ingredient 2 -->
    <rect width="330" height="32" rx="6" fill="#1a1a1a" stroke="#333"/>
    <text x="12" y="21" fill="#fff" font-family="Arial" font-size="13" font-weight="900">JASMINE RICE</text>
    <rect x="240" y="6" width="80" height="20" rx="4" fill="#f29b11"/>
    <text x="280" y="20" fill="#000" font-family="Arial" font-size="11" font-weight="900" text-anchor="middle">80G DRY</text>
  </g>

  <!-- Macro Result Footer -->
  <line x1="15" y1="155" x2="345" y2="155" stroke="#222"/>
  <text x="15" y="175" fill="#444" font-family="Arial" font-size="9" font-weight="800">YIELDS TARGET MACROS:</text>
  <g transform="translate(130, 162)">
    <rect width="45" height="18" rx="4" stroke="#f29b11" fill="rgba(242, 155, 17, 0.05)"/>
    <text x="22.5" y="13" fill="#f29b11" font-family="Arial" font-size="10" font-weight="900" text-anchor="middle">45P</text>
    
    <rect x="50" width="45" height="18" rx="4" stroke="#f29b11" fill="rgba(242, 155, 17, 0.05)"/>
    <text x="72.5" y="13" fill="#f29b11" font-family="Arial" font-size="10" font-weight="900" text-anchor="middle">60C</text>
    
    <rect x="100" width="45" height="18" rx="4" stroke="#f29b11" fill="rgba(242, 155, 17, 0.05)"/>
    <text x="122.5" y="13" fill="#f29b11" font-family="Arial" font-size="10" font-weight="900" text-anchor="middle">12F</text>
  </g>
</svg>