<svg width="780" height="844" viewBox="0 0 780 844" fill="none" xmlns="http://www.w3.org/2000/svg">
  <!-- Left Side: LIVE TIMELINE MODE (Date Scroller Context) -->
  <g transform="translate(0,0)">
    <rect width="390" height="844" fill="#121212"/>
    
    <!-- Header (54px) -->
    <rect width="390" height="54" fill="#121212"/>
    <text x="195" y="32" fill="#fff" font-family="Arial" font-size="16" font-weight="900" text-anchor="middle" letter-spacing="2">LIVE <tspan fill="#f29b11">TIMELINE</tspan></text>
    <line x1="0" y1="54" x2="390" y2="54" stroke="#222"/>

    <!-- Existing 44px Date Scroller -->
    <g transform="translate(0, 60)">
      <rect x="10" y="0" width="44" height="44" rx="10" stroke="#222" fill="transparent"/>
      <text x="32" y="15" fill="#666" font-family="Arial" font-size="8" font-weight="800" text-anchor="middle">WED</text>
      <text x="32" y="35" fill="#666" font-family="Arial" font-size="17" font-weight="800" text-anchor="middle">21</text>
      
      <rect x="60" y="0" width="44" height="44" rx="10" stroke="#f29b11" stroke-width="2" fill="transparent"/>
      <text x="82" y="15" fill="#666" font-family="Arial" font-size="8" font-weight="800" text-anchor="middle">THU</text>
      <text x="82" y="35" fill="#f29b11" font-family="Arial" font-size="17" font-weight="950" text-anchor="middle">22</text>
      
      <rect x="110" y="0" width="44" height="44" rx="10" stroke="#222" fill="transparent"/>
      <text x="132" y="15" fill="#666" font-family="Arial" font-size="8" font-weight="800" text-anchor="middle">FRI</text>
      <text x="132" y="35" fill="#666" font-family="Arial" font-size="17" font-weight="800" text-anchor="middle">23</text>
    </g>

    <!-- 24h Timeline Integration -->
    <g transform="translate(0, 120)">
      <text x="15" y="20" fill="#333" font-family="Arial" font-size="10" font-weight="800">11:00</text>
      <line x1="55" y1="16" x2="375" y2="16" stroke="#1a1a1a"/>
      
      <!-- System Now Line -->
      <g transform="translate(0, 60)">
        <line x1="55" y1="0" x2="390" y2="0" stroke="#f29b11" stroke-width="2"/>
        <text x="385" y="-5" fill="#f29b11" font-family="Arial" font-size="9" font-weight="900" text-anchor="end">NOW (11:45)</text>
        <circle cx="55" cy="0" r="4" fill="#f29b11"/>
      </g>

      <text x="15" y="120" fill="#333" font-family="Arial" font-size="10" font-weight="800">12:00</text>
      <line x1="55" y1="116" x2="375" y2="116" stroke="#1a1a1a"/>

      <!-- Planned Capsule -->
      <g transform="translate(65, 140)">
        <rect width="310" height="50" rx="6" fill="#1a1a1a" stroke="#222"/>
        <rect width="4" height="50" fill="#f29b11" fill-opacity="0.4"/>
        <text x="12" y="30" fill="#666" font-family="Arial" font-size="12" font-weight="900">12:30 | PLANNED MEAL 1</text>
      </g>
    </g>
  </g>

  <!-- Divider -->
  <line x1="390" y1="0" x2="390" y2="844" stroke="#333" stroke-width="2"/>

  <!-- Right Side: MONTH GRID MODE (DayPicker Context) -->
  <g transform="translate(390,0)">
    <rect width="390" height="844" fill="#121212"/>
    
    <!-- Header (54px) -->
    <rect width="390" height="54" fill="#121212"/>
    <text x="195" y="32" fill="#fff" font-family="Arial" font-size="16" font-weight="900" text-anchor="middle" letter-spacing="2">JANUARY <tspan fill="#f29b11">2026</tspan></text>
    <line x1="0" y1="54" x2="390" y2="54" stroke="#222"/>

    <!-- Monthly Grid (Mock DayPicker) -->
    <g transform="translate(45, 70)">
      <rect width="300" height="240" rx="15" fill="#0a0a0a" stroke="#222"/>
      <!-- Grid Rows -->
      <g transform="translate(20, 40)">
        <!-- Row 1 -->
        <text x="0" y="0" fill="#444" font-family="Arial" font-size="10" font-weight="900">M</text>
        <text x="40" y="0" fill="#444" font-family="Arial" font-size="10" font-weight="900">T</text>
        <text x="80" y="0" fill="#444" font-family="Arial" font-size="10" font-weight="900">W</text>
        <text x="120" y="0" fill="#444" font-family="Arial" font-size="10" font-weight="900">T</text>
        <text x="160" y="0" fill="#444" font-family="Arial" font-size="10" font-weight="900">F</text>
        
        <!-- Today Indicator -->
        <rect x="112" y="15" width="32" height="32" rx="8" stroke="#2ecc71" stroke-width="2" fill="transparent"/>
        <text x="128" y="36" fill="#2ecc71" font-family="Arial" font-size="14" font-weight="900" text-anchor="middle">22</text>
        
        <!-- Logged Day Indicator -->
        <text x="88" y="36" fill="#f29b11" font-family="Arial" font-size="14" font-weight="900" text-anchor="middle">21</text>
        <circle cx="88" cy="42" r="2" fill="#f29b11"/>
      </g>
    </g>

    <!-- Agenda Summary below Grid -->
    <g transform="translate(15, 330)">
      <text x="0" y="0" fill="#444" font-family="Arial" font-size="11" font-weight="800">AGENDA SUMMARY:</text>
      
      <g transform="translate(0, 15)">
        <rect width="360" height="60" rx="6" fill="#1a1a1a" stroke="#222"/>
        <text x="15" y="25" fill="#fff" font-family="Arial" font-size="13" font-weight="900">LOWER BODY ALPHA</text>
        <text x="15" y="45" fill="#666" font-family="Arial" font-size="11" font-weight="800">4 EXERCISES · 12 SETS COMPLETED</text>
        <rect x="290" y="15" width="55" height="30" rx="4" fill="rgba(46, 204, 113, 0.1)" stroke="#2ecc71"/>
        <text x="317.5" y="34" fill="#2ecc71" font-family="Arial" font-size="10" font-weight="900" text-anchor="middle">VIEW</text>
      </g>
    </g>
  </g>

  <!-- Shared Bottom Controls Overlay -->
  <g transform="translate(115, 780)">
    <rect width="160" height="40" rx="20" fill="#0a0a0a" stroke="#222"/>
    <text x="42.5" y="25" fill="#f29b11" font-family="Arial" font-size="10" font-weight="900" text-anchor="middle">AGENDA</text>
    <rect x="80" y="5" width="75" height="30" rx="15" fill="#222"/>
    <text x="117.5" y="25" fill="#666" font-family="Arial" font-size="10" font-weight="900" text-anchor="middle">LIVE</text>
  </g>
  
  <g transform="translate(505, 780)">
    <rect width="160" height="40" rx="20" fill="#0a0a0a" stroke="#222"/>
    <rect x="5" y="5" width="75" height="30" rx="15" fill="#f29b11"/>
    <text x="42.5" y="25" fill="#000" font-family="Arial" font-size="10" font-weight="900" text-anchor="middle">AGENDA</text>
    <text x="117.5" y="25" fill="#666" font-family="Arial" font-size="10" font-weight="900" text-anchor="middle">LIVE</text>
  </g>
</svg>